<svg id="Слой_1" data-name="Слой 1" xmlns="http://www.w3.org/2000/svg" viewBox="0 0 194 65.6"><defs><style>.cls-1{fill:#fff;}</style></defs><title>logo_2</title><polygon class="cls-1" points="91.33 47 94 47 74.01 25 0 25 0 26.93 73.22 26.93 91.33 47"/><polygon class="cls-1" points="109.68 18 107 18 127.85 40 194 40 194 38.14 128.65 38.14 109.68 18"/><circle class="cls-1" cx="130.82" cy="17.33" r="1.82"/><rect class="cls-1" x="129.14" y="20.22" width="3.36" height="12.61"/><polygon class="cls-1" points="137.82 27.89 142.21 27.89 142.21 32.83 145.57 32.83 145.57 20.22 142.21 20.22 142.21 24.96 137.82 24.96 137.82 20.22 134.46 20.22 134.46 32.83 137.82 32.83 137.82 27.89"/><path class="cls-1" d="M1045.43,73.32c0-1.58-.32-2.71-2.19-2.82v-.14c1.67-.27,2-1.31,2-2.91,0-2.76-1.48-3.23-4-3.23h-6.62V76.83h6.69C1044,76.83,1045.43,76.41,1045.43,73.32ZM1038,67h2.82c.89,0,1.06.32,1.06,1.08,0,1-.29,1.21-1.46,1.21H1038Zm0,7.09V71.6h2.61c1.09,0,1.48.15,1.48,1.19s-.45,1.28-1.55,1.28Z" transform="translate(-887 -44)"/><polygon class="cls-1" points="169.35 30.07 163.5 30.07 163.5 27.62 168.88 27.62 168.88 25.28 163.5 25.28 163.5 22.98 169.24 22.98 169.24 20.22 160.14 20.22 160.14 32.83 169.35 32.83 169.35 30.07"/><path class="cls-1" d="M1063.89,77c3.93,0,5.16-1,5.16-4.51v-.37h-3.46v.37c0,1.48-.67,1.58-2.07,1.58-2,0-2.1-.79-2.1-2.67v-2c0-1.8.18-2.4,2.1-2.4,1.14,0,2.07.22,2.07,1.23v.49H1069v-.49c0-3.23-1.81-4.15-5.16-4.15-3.7,0-5.94.62-5.94,4.79v3.26C1058,76.76,1060.46,77,1063.89,77Z" transform="translate(-887 -44)"/><polygon class="cls-1" points="183.3 20.03 183.3 23.04 186.65 23.04 186.65 33.03 189.96 33.03 189.96 23.04 193.3 23.04 193.3 20.03 183.3 20.03"/><polygon class="cls-1" points="98.98 22 98.98 27.1 110.03 38.41 90 58.9 90 64 94.98 64 120 38.41 103.96 22 98.98 22"/><polygon class="cls-1" points="101.02 42 101.02 36.9 89.97 25.59 110 5.1 110 0 105.01 0 80 25.59 96.03 42 101.02 42"/><polygon class="cls-1" points="3.35 40.4 4.35 40.4 7.85 45.5 12 45.5 7.21 38.88 11.63 32.5 7.58 32.5 4.35 37.39 3.35 37.39 3.35 32.5 0 32.5 0 45.5 3.35 45.5 3.35 40.4"/><path class="cls-1" d="M912.93,89.33,909.1,76.73H904L900.2,89.33h3.5l.62-2.17h4.52l.66,2.17ZM905,84.73l1.53-5.48h0l1.55,5.48Z" transform="translate(-887 -44)"/><polygon class="cls-1" points="42.7 45.33 42.7 32.73 37.24 32.73 34.95 40.64 34.83 40.64 32.74 32.73 27.1 32.73 27.1 45.33 30.46 45.33 30.45 35.67 30.6 35.63 33.45 45.33 36.36 45.33 39.2 35.95 39.36 35.99 39.34 45.33 42.7 45.33"/><path class="cls-1" d="M942.25,85.47c0-2.82-1.31-3.87-3.88-3.87h-3.13V79.35h5.83V76.73h-9.2V89.33h6.49C940.91,89.33,942.25,88.29,942.25,85.47Zm-4.67,1.24h-2.34V84.22h2.34c1,0,1.31.24,1.31,1.28S938.54,86.71,937.58,86.71Z" transform="translate(-887 -44)"/><rect class="cls-1" x="57.1" y="32.73" width="3.36" height="12.61"/><path class="cls-1" d="M955.14,76.61c-3.41,0-5.83.76-5.83,4.64v3.56c0,3.88,2.42,4.69,5.83,4.69S961,88.7,961,84.81V81.25C961,77.37,958.55,76.61,955.14,76.61Zm2.37,7.83c0,1.88-.62,2.13-2.37,2.13s-2.37-.25-2.37-2.13V81.6c0-1.88.62-2.07,2.37-2.07s2.37.2,2.37,2.07Z" transform="translate(-887 -44)"/><path class="cls-1" d="M891,99.06h-.67V94.33h-2.08v4.73h-.67v-5.3H891Z" transform="translate(-887 -44)"/><path class="cls-1" d="M895,97.28a2.36,2.36,0,0,1-.34,1.39,1.11,1.11,0,0,1-1,.46,1.06,1.06,0,0,1-.91-.45v1.89h-.64V95.12h.58l0,.44a1,1,0,0,1,.93-.51,1.11,1.11,0,0,1,1,.45,2.39,2.39,0,0,1,.33,1.35Zm-.64-.37a1.83,1.83,0,0,0-.2-1,.72.72,0,0,0-.66-.31.76.76,0,0,0-.7.46v2a.76.76,0,0,0,.71.45.71.71,0,0,0,.64-.31,1.81,1.81,0,0,0,.21-1Z" transform="translate(-887 -44)"/><path class="cls-1" d="M895.65,96.91a2.06,2.06,0,0,1,.42-1.36,1.36,1.36,0,0,1,1.1-.5,1.38,1.38,0,0,1,1.1.49,2,2,0,0,1,.43,1.33v.42a2.05,2.05,0,0,1-.42,1.35,1.48,1.48,0,0,1-2.2,0,2,2,0,0,1-.43-1.31Zm.64.37a1.67,1.67,0,0,0,.24,1,.74.74,0,0,0,.64.35q.85,0,.88-1.23v-.44a1.67,1.67,0,0,0-.24-1,.74.74,0,0,0-.64-.35.73.73,0,0,0-.64.35,1.67,1.67,0,0,0-.24,1Z" transform="translate(-887 -44)"/><path class="cls-1" d="M901.46,98.17l1.06-3h.8v3.94h-.64V96.34l-1,2.72h-.44l-1-2.78v2.78h-.64V95.12h.83Z" transform="translate(-887 -44)"/><path class="cls-1" d="M905,96.48h.81a1.21,1.21,0,0,1,.9.35,1.27,1.27,0,0,1,.33.93,1.31,1.31,0,0,1-.34.94,1.19,1.19,0,0,1-.9.36H904.4V95.12H905Zm0,.55v1.48h.8a.54.54,0,0,0,.44-.19.82.82,0,0,0,.16-.54.88.88,0,0,0-.16-.54.52.52,0,0,0-.43-.21Zm3.25,2h-.64V95.12h.64Z" transform="translate(-887 -44)"/><path class="cls-1" d="M910.12,95.12v3.39h1.11V95.12h.64v3.39H913V95.12h.64v3.94h-4.16V95.12Z" transform="translate(-887 -44)"/><path class="cls-1" d="M917.44,95.12v3.94h-.64V95.68h-1L915.69,97a4,4,0,0,1-.3,1.57.85.85,0,0,1-.79.47h-.21v-.59h.16a.47.47,0,0,0,.38-.36,5.42,5.42,0,0,0,.15-1.28l.06-1.69Z" transform="translate(-887 -44)"/><path class="cls-1" d="M919.87,99.13a1.44,1.44,0,0,1-1.13-.44,1.9,1.9,0,0,1-.4-1.29v-.48a2.22,2.22,0,0,1,.38-1.38,1.27,1.27,0,0,1,1.07-.5,1.23,1.23,0,0,1,1,.44,2.27,2.27,0,0,1,.35,1.37v.42H919v.09a1.43,1.43,0,0,0,.24.92.84.84,0,0,0,.69.29,1.11,1.11,0,0,0,.5-.11,1.24,1.24,0,0,0,.41-.34l.33.41A1.46,1.46,0,0,1,919.87,99.13Zm-.07-3.53a.68.68,0,0,0-.59.27,1.64,1.64,0,0,0-.22.85h1.55v-.09a1.5,1.5,0,0,0-.2-.8A.62.62,0,0,0,919.8,95.6Z" transform="translate(-887 -44)"/><path class="cls-1" d="M924.72,99.06h-.64V97.38h-1.42v1.68H922V95.12h.65v1.71h1.42V95.12h.64Z" transform="translate(-887 -44)"/><path class="cls-1" d="M928.51,99.06h-.64V97.38h-1.42v1.68h-.65V95.12h.65v1.71h1.42V95.12h.64Z" transform="translate(-887 -44)"/><path class="cls-1" d="M929.4,96.91a2.06,2.06,0,0,1,.42-1.36,1.36,1.36,0,0,1,1.1-.5,1.38,1.38,0,0,1,1.1.49,2,2,0,0,1,.43,1.33v.42a2.05,2.05,0,0,1-.42,1.35,1.48,1.48,0,0,1-2.2,0,2,2,0,0,1-.43-1.31Zm.64.37a1.67,1.67,0,0,0,.24,1,.74.74,0,0,0,.64.35q.85,0,.88-1.23v-.44a1.67,1.67,0,0,0-.24-1,.74.74,0,0,0-.64-.35.73.73,0,0,0-.64.35,1.67,1.67,0,0,0-.24,1Z" transform="translate(-887 -44)"/><path class="cls-1" d="M934.48,97.08H933v-.55h1.5Z" transform="translate(-887 -44)"/><path class="cls-1" d="M936.5,98.58a.68.68,0,0,0,.51-.2.84.84,0,0,0,.21-.57h.61a1.34,1.34,0,0,1-.4.94,1.28,1.28,0,0,1-.93.37,1.37,1.37,0,0,1-1.12-.46A2.1,2.1,0,0,1,935,97.3v-.43a2.09,2.09,0,0,1,.38-1.36A1.36,1.36,0,0,1,936.5,95a1.25,1.25,0,0,1,1,.38,1.55,1.55,0,0,1,.38,1h-.61a1.07,1.07,0,0,0-.21-.66.65.65,0,0,0-.52-.22.74.74,0,0,0-.64.28,1.62,1.62,0,0,0-.21.93v.5a1.75,1.75,0,0,0,.21,1A.74.74,0,0,0,936.5,98.58Z" transform="translate(-887 -44)"/><path class="cls-1" d="M941.07,95.67H940v3.39h-.64V95.67h-1.06v-.55h2.77Z" transform="translate(-887 -44)"/><path class="cls-1" d="M944.59,97.28a2.36,2.36,0,0,1-.34,1.39,1.11,1.11,0,0,1-1,.46,1.06,1.06,0,0,1-.91-.45v1.89h-.64V95.12h.58l0,.44a1,1,0,0,1,.93-.51,1.11,1.11,0,0,1,1,.45,2.39,2.39,0,0,1,.33,1.35Zm-.64-.37a1.83,1.83,0,0,0-.2-1,.72.72,0,0,0-.66-.31.76.76,0,0,0-.7.46v2a.76.76,0,0,0,.71.45.71.71,0,0,0,.64-.31,1.81,1.81,0,0,0,.21-1Z" transform="translate(-887 -44)"/><path class="cls-1" d="M945.29,96.91a2.06,2.06,0,0,1,.42-1.36,1.36,1.36,0,0,1,1.1-.5,1.38,1.38,0,0,1,1.1.49,2,2,0,0,1,.43,1.33v.42a2.05,2.05,0,0,1-.42,1.35,1.48,1.48,0,0,1-2.2,0,2,2,0,0,1-.43-1.31Zm.64.37a1.67,1.67,0,0,0,.24,1,.74.74,0,0,0,.64.35q.85,0,.88-1.23v-.44a1.67,1.67,0,0,0-.24-1,.74.74,0,0,0-.64-.35.73.73,0,0,0-.64.35,1.67,1.67,0,0,0-.24,1Z" transform="translate(-887 -44)"/><path class="cls-1" d="M951.29,95.12h.64v3.94h-.64V96.19l-1.43,2.87h-.64V95.12h.64V98Z" transform="translate(-887 -44)"/><path class="cls-1" d="M955.45,95.67h-1.07v3.39h-.64V95.67h-1.06v-.55h2.77Z" transform="translate(-887 -44)"/><path class="cls-1" d="M957.25,99.13a1.44,1.44,0,0,1-1.13-.44,1.9,1.9,0,0,1-.4-1.29v-.48a2.22,2.22,0,0,1,.38-1.38,1.27,1.27,0,0,1,1.07-.5,1.23,1.23,0,0,1,1,.44,2.27,2.27,0,0,1,.35,1.37v.42h-2.2v.09a1.43,1.43,0,0,0,.24.92.84.84,0,0,0,.69.29,1.11,1.11,0,0,0,.5-.11,1.24,1.24,0,0,0,.41-.34l.33.41A1.46,1.46,0,0,1,957.25,99.13Zm-.07-3.53a.68.68,0,0,0-.59.27,1.64,1.64,0,0,0-.22.85h1.55v-.09a1.5,1.5,0,0,0-.2-.8A.62.62,0,0,0,957.17,95.6Z" transform="translate(-887 -44)"/><path class="cls-1" d="M962.11,95.12v3.94h-.64V95.68h-1L960.36,97a4,4,0,0,1-.3,1.57.85.85,0,0,1-.79.47h-.21v-.59h.16a.47.47,0,0,0,.38-.36,5.42,5.42,0,0,0,.15-1.28l.06-1.69Z" transform="translate(-887 -44)"/><path class="cls-1" d="M963.83,96.48h.81a1.21,1.21,0,0,1,.9.35,1.27,1.27,0,0,1,.33.93,1.31,1.31,0,0,1-.34.94,1.19,1.19,0,0,1-.9.36h-1.45V95.12h.64Zm0,.55v1.48h.8a.54.54,0,0,0,.44-.19.82.82,0,0,0,.16-.54.88.88,0,0,0-.16-.54.52.52,0,0,0-.43-.21Z" transform="translate(-887 -44)"/><path class="cls-1" d="M969.46,99.06h-.64V97.38H967.4v1.68h-.65V95.12h.65v1.71h1.42V95.12h.64Z" transform="translate(-887 -44)"/><path class="cls-1" d="M972.51,99.06a1.4,1.4,0,0,1-.08-.43,1,1,0,0,1-.87.5,1.13,1.13,0,0,1-.83-.3,1.15,1.15,0,0,1-.3-.85,1.2,1.2,0,0,1,.41-1,1.68,1.68,0,0,1,1.12-.36h.47v-.42a.67.67,0,0,0-.16-.5.78.78,0,0,0-1,0,.58.58,0,0,0-.18.44h-.64a1,1,0,0,1,.18-.58,1.25,1.25,0,0,1,.48-.43,1.44,1.44,0,0,1,.67-.16,1.28,1.28,0,0,1,.92.3,1.18,1.18,0,0,1,.32.88v2a2.39,2.39,0,0,0,.12.79v.06Zm-.86-.51a.86.86,0,0,0,.45-.13.8.8,0,0,0,.31-.33v-.94h-.36a1.22,1.22,0,0,0-.72.21.65.65,0,0,0-.27.56.72.72,0,0,0,.13.49A.58.58,0,0,0,971.66,98.54Z" transform="translate(-887 -44)"/><path class="cls-1" d="M976.63,95.12v3.94H976V97.53h-.76l-.79,1.53h-.69l.85-1.65a1,1,0,0,1-.49-.43,1.29,1.29,0,0,1-.17-.67,1.14,1.14,0,0,1,.35-.87,1.31,1.31,0,0,1,.94-.33Zm-2,1.21a.68.68,0,0,0,.16.47.54.54,0,0,0,.42.18H976V95.67h-.77a.61.61,0,0,0-.46.18A.67.67,0,0,0,974.58,96.33Z" transform="translate(-887 -44)"/><path class="cls-1" d="M889.65,104.62h-1.47V108h-.65v-3.94h2.12Z" transform="translate(-887 -44)"/><path class="cls-1" d="M893.09,106.23a2.36,2.36,0,0,1-.34,1.39,1.11,1.11,0,0,1-1,.46,1.06,1.06,0,0,1-.91-.45v1.89h-.64v-5.45h.58l0,.44a1,1,0,0,1,.93-.51,1.11,1.11,0,0,1,1,.45,2.39,2.39,0,0,1,.33,1.35Zm-.64-.37a1.83,1.83,0,0,0-.2-1,.72.72,0,0,0-.66-.31.76.76,0,0,0-.7.46v2a.76.76,0,0,0,.71.45.71.71,0,0,0,.64-.32,1.81,1.81,0,0,0,.21-1Z" transform="translate(-887 -44)"/><path class="cls-1" d="M895,106.94l.72-2.87h.68l-1.29,4.5a1.74,1.74,0,0,1-.41.77.84.84,0,0,1-.6.26,1.3,1.3,0,0,1-.33-.06V109h.14a.66.66,0,0,0,.44-.13.94.94,0,0,0,.26-.46l.13-.44-1.16-3.91h.7Z" transform="translate(-887 -44)"/><path class="cls-1" d="M899.76,108h-.64v-3.38H897.7V108H897v-3.94h2.71Z" transform="translate(-887 -44)"/><path class="cls-1" d="M903.56,108h-.64v-3.38h-1.42V108h-.65v-3.94h2.71Z" transform="translate(-887 -44)"/><path class="cls-1" d="M906.61,108a1.43,1.43,0,0,1-.08-.43,1,1,0,0,1-.87.5,1.13,1.13,0,0,1-.84-.3,1.14,1.14,0,0,1-.3-.85,1.2,1.2,0,0,1,.41-1,1.68,1.68,0,0,1,1.12-.36h.47v-.42a.55.55,0,0,0-.63-.65.66.66,0,0,0-.47.17.58.58,0,0,0-.18.44h-.64a1,1,0,0,1,.18-.58,1.24,1.24,0,0,1,.48-.43,1.44,1.44,0,0,1,.67-.16,1.28,1.28,0,0,1,.92.3,1.18,1.18,0,0,1,.32.88v2a2.4,2.4,0,0,0,.12.79V108Zm-.86-.51a.85.85,0,0,0,.45-.13.81.81,0,0,0,.31-.33v-.94h-.36a1.22,1.22,0,0,0-.72.21.65.65,0,0,0-.27.56.72.72,0,0,0,.13.49A.59.59,0,0,0,905.75,107.49Z" transform="translate(-887 -44)"/></svg>