<svg id="Слой_1" data-name="Слой 1" xmlns="http://www.w3.org/2000/svg" viewBox="0 0 194 64"><defs><style>.cls-1{fill:#d20a11;}.cls-2{fill:#006eb7;}</style></defs><title>logo_1</title><polygon class="cls-1" points="91.33 47 94 47 74.01 25 0 25 0 26.93 73.22 26.93 91.33 47"/><polygon class="cls-1" points="109.68 18 107 18 127.85 40 194 40 194 38.14 128.65 38.14 109.68 18"/><circle class="cls-1" cx="130.82" cy="17.33" r="1.82"/><rect class="cls-2" x="129.14" y="20.22" width="3.36" height="12.61"/><polygon class="cls-2" points="137.82 27.89 142.21 27.89 142.21 32.83 145.57 32.83 145.57 20.22 142.21 20.22 142.21 24.96 137.82 24.96 137.82 20.22 134.46 20.22 134.46 32.83 137.82 32.83 137.82 27.89"/><path class="cls-2" d="M1045.43,73.32c0-1.58-.32-2.71-2.19-2.82v-.14c1.67-.27,2-1.31,2-2.91,0-2.76-1.48-3.23-4-3.23h-6.62V76.83h6.69C1044,76.83,1045.43,76.41,1045.43,73.32ZM1038,67h2.82c.89,0,1.06.32,1.06,1.08,0,1-.29,1.21-1.46,1.21H1038Zm0,7.09V71.6h2.61c1.09,0,1.48.15,1.48,1.19s-.45,1.28-1.55,1.28Z" transform="translate(-887 -44)"/><polygon class="cls-2" points="169.35 30.07 163.5 30.07 163.5 27.62 168.88 27.62 168.88 25.28 163.5 25.28 163.5 22.98 169.24 22.98 169.24 20.22 160.14 20.22 160.14 32.83 169.35 32.83 169.35 30.07"/><path class="cls-2" d="M1063.89,77c3.93,0,5.16-1,5.16-4.51v-.37h-3.46v.37c0,1.48-.67,1.58-2.07,1.58-2,0-2.1-.79-2.1-2.67v-2c0-1.8.18-2.4,2.1-2.4,1.14,0,2.07.22,2.07,1.23v.49H1069v-.49c0-3.23-1.81-4.15-5.16-4.15-3.7,0-5.94.62-5.94,4.79v3.26C1058,76.76,1060.46,77,1063.89,77Z" transform="translate(-887 -44)"/><polygon class="cls-2" points="183.3 20.03 183.3 23.04 186.65 23.04 186.65 33.03 189.96 33.03 189.96 23.04 193.3 23.04 193.3 20.03 183.3 20.03"/><polygon class="cls-2" points="98.98 22 98.98 27.1 110.03 38.41 90 58.9 90 64 94.98 64 120 38.41 103.96 22 98.98 22"/><polygon class="cls-2" points="101.02 42 101.02 36.9 89.97 25.59 110 5.1 110 0 105.01 0 80 25.59 96.03 42 101.02 42"/><polygon class="cls-2" points="3.35 40.4 4.35 40.4 7.85 45.5 12 45.5 7.21 38.88 11.63 32.5 7.58 32.5 4.35 37.39 3.35 37.39 3.35 32.5 0 32.5 0 45.5 3.35 45.5 3.35 40.4"/><path class="cls-2" d="M912.93,89.33,909.1,76.73H904L900.2,89.33h3.5l.62-2.17h4.52l.66,2.17ZM905,84.73l1.53-5.48h0l1.55,5.48Z" transform="translate(-887 -44)"/><polygon class="cls-2" points="42.7 45.33 42.7 32.73 37.24 32.73 34.95 40.64 34.83 40.64 32.74 32.73 27.1 32.73 27.1 45.33 30.46 45.33 30.45 35.67 30.6 35.63 33.45 45.33 36.36 45.33 39.2 35.95 39.36 35.99 39.34 45.33 42.7 45.33"/><path class="cls-2" d="M942.25,85.47c0-2.82-1.31-3.87-3.88-3.87h-3.13V79.35h5.83V76.73h-9.2V89.33h6.49C940.91,89.33,942.25,88.29,942.25,85.47Zm-4.67,1.24h-2.34V84.22h2.34c1,0,1.31.24,1.31,1.28S938.54,86.71,937.58,86.71Z" transform="translate(-887 -44)"/><rect class="cls-2" x="57.1" y="32.73" width="3.36" height="12.61"/><path class="cls-2" d="M955.14,76.61c-3.41,0-5.83.76-5.83,4.64v3.56c0,3.88,2.42,4.69,5.83,4.69S961,88.7,961,84.81V81.25C961,77.37,958.55,76.61,955.14,76.61Zm2.37,7.83c0,1.88-.62,2.13-2.37,2.13s-2.37-.25-2.37-2.13V81.6c0-1.88.62-2.07,2.37-2.07s2.37.2,2.37,2.07Z" transform="translate(-887 -44)"/></svg>